<?xml version="1.0" encoding="utf-8"?>
<!-- Generator: Adobe Illustrator 24.3.0, SVG Export Plug-In . SVG Version: 6.00 Build 0)  -->
<svg version="1.1" id="Low_Code" xmlns="http://www.w3.org/2000/svg" xmlns:xlink="http://www.w3.org/1999/xlink" x="0px" y="0px"
	 viewBox="0 0 1034.72 195.04" style="enable-background:new 0 0 1034.72 195.04;" xml:space="preserve">
<style type="text/css">
	.st0{enable-background:new    ;}
</style>
<g>
	<g class="st0">
		<path d="M91.95,148.21v14.3H15.93V35.81h15.02v112.4H91.95z"/>
		<path d="M228.42,99.16c0,37.29-28.42,65.34-65.34,65.34c-36.74,0-65.34-28.06-65.34-65.34c0-37.29,28.6-65.34,65.52-65.34
			C200,33.82,228.42,61.88,228.42,99.16z M112.94,99.16c0,29.14,21.9,51.04,50.14,51.04s50.14-21.72,50.14-51.04
			c0-29.32-21.9-51.04-50.14-51.04S112.94,70.02,112.94,99.16z"/>
	</g>
	<g class="st0">
		<path d="M415.39,35.81l-35.29,126.7h-19l-12.85-45.79l-15.57-62.81h-2.71l-15.57,62.81l-12.67,45.79h-19.19l-35.29-126.7h15.57
			l16.83,60.64l12.67,50.68l12.49-50.68l16.83-60.64H341l16.83,60.64l12.67,50.86l12.67-50.86l16.65-60.64H415.39z"/>
	</g>
	<g class="st0">
		<path d="M468.06,162.51h-31.13l36.74-139.37h31.13L468.06,162.51z"/>
	</g>
	<g class="st0">
		<path d="M528.33,99.16c0-37.29,27.69-65.7,65.7-65.7c31.13,0,54.84,19.55,61.72,47.06h-32.94c-5.07-11.04-15.38-17.74-28.78-17.74
			c-21,0-34.57,15.2-34.57,36.38c0,21.18,13.58,36.38,34.57,36.38c13.39,0,23.71-6.7,28.78-17.74h32.94
			c-6.88,27.51-30.59,47.06-61.72,47.06C556.03,164.87,528.33,136.45,528.33,99.16z"/>
		<path d="M797.84,99.16c0,37.29-28.78,65.7-66.25,65.7s-66.25-28.42-66.25-65.7c0-37.29,28.78-65.7,66.25-65.7
			S797.84,61.88,797.84,99.16z M696.48,99.16c0,21.18,14.84,36.38,35.11,36.38c20.27,0,35.11-15.2,35.11-36.38
			c0-21.18-14.84-36.38-35.11-36.38C711.33,62.78,696.48,77.99,696.48,99.16z"/>
		<path d="M925.81,99.16c0,36.02-27.87,63.35-64.8,63.35h-47.24V35.81h47.24C897.94,35.81,925.81,63.14,925.81,99.16z M895.04,99.16
			c0-20.27-13.94-34.03-34.03-34.03h-16.47v68.06h16.47C881.1,133.19,895.04,119.25,895.04,99.16z"/>
		<path d="M972.51,65.14v18.82h51.4v29.32h-51.4v19.91h56.47v29.32h-87.24V35.81h87.24v29.32H972.51z"/>
	</g>
</g>
</svg>
