<svg
    version="1.1"
    viewBox="0 0 2048 2048"
    width="1280"
    height="1280"
    xmlns="http://www.w3.org/2000/svg"
>
    <path
        transform="translate(1397,744)"
        d="m0 0h28l15 5 12 7 14 12 9 12 8 16 4 14 11 60 14 77 15 82 8 44 1 9v21l-4 17-7 14-10 13-9 7-10 5-14 4-39 7-139 24-37 6-49 9-90 15-40 7-53 9-40 7-116 20-53 9-40 7-116 20-8 1h-15l-15-3-16-7-10-6-12-10-8-10-8-13-5-13-4-16-17-102-11-68-8-48-8-50-5-32v-26l4-15 8-16 8-11 6-7 14-10 13-6 17-4 71-8 58-6 81-9 144-15 73-8 56-6 185-20 59-6z"
        fill="#8946FD"
    />
    <path
        transform="translate(1047,865)"
        d="m0 0h21l18 3 15 5 12 6 12 8 13 11v2h2l9 11 9 14 6 10 8 19 6 20 4 22v8l-7 3-30 5-117 17-12 1 5 13 5 10 10 13 13 9 10 4 5 1h17l15-4 10-6 5-5 4-5 5-9 6-12 18 2 30 6 11 3 3 5-1 8-6 16-8 15-11 14-12 12-13 9-17 9-20 6-19 3h-26l-20-4-19-7-18-10-11-9-13-13-8-10-8-13-8-16-7-19-5-21-2-13-1-12v-10l2-20 4-18 8-21 9-16 11-13 8-8 13-10 12-7 21-8 14-3z"
        fill="white"
    />
    <path
        transform="translate(903,888)"
        d="m0 0h13l4 6v8l-36 216-8 47-2 7-3 2-34 6-34 5h-8l-6-7-13-24-12-22-10-19-13-23-13-25-13-23-16-30-10-18-15-28-9-16-11-21v-6l4-5 17-3 53-6h5l4 5 46 92 10 19 21 42 3 9h2l1-12 9-61 11-82 4-25 9-2 31-4z"
        fill="white"
    />
    <path
        transform="translate(1371,832)"
        d="m0 0h13l3 6v8l-13 95-11 79-9 66-2 9-3 3-35 6-19 3h-13l-5-8-14-27-12-22-15-29-10-19-12-23-12-22-18-34-10-19-17-32-2-6 1-6 2-2 26-4 26-3h15l5 8 11 23 10 21 7 14 11 23 16 32 13 27 4 8 3-32 13-118 3-17 2-2 19-3z"
        fill="white"
    />
    <path
        transform="translate(1051,928)"
        d="m0 0h13l12 4 9 5 8 8 7 14 2 5-1 4-59 8-21 3h-12l1-9 3-11 6-12 6-7 9-6 9-4z"
        fill="#8946FD"
    />
</svg>