<?xml version="1.0" encoding="UTF-8"?>
<svg version="1.1" viewBox="0 0 2048 1075" width="1280" height="1280" xmlns="http://www.w3.org/2000/svg">
<path transform="translate(0)" d="m0 0h2048v1075h-2048z" fill="#FCFCFC"/>
<path transform="translate(194,397)" d="m0 0h388l7 3 5 5 4 7v71l-4 8-5 4-6 3-18 1-1 48-4 8-9 6-5 1h-298l-19-1-7-4-5-6-2-5-1-47-22-1-8-5-5-6-2-8v-64l3-8 5-6 5-3z" fill="#BD4D7E"/>
<path transform="translate(214,498)" d="m0 0h351l-1 49-4 8-9 6-5 1h-298l-19-1-7-4-5-6-2-5z" fill="#D594B1"/>
<path transform="translate(693,401)" d="m0 0h56l3 5 11 29 15 39 17 45 16 41 5 13 1 1 16-41 17-43 19-49 15-38 1-1 30-1h31v9l-17 3-5 1-1 12-1 175 13 1 9 2v9h-73l-1-2v-7l8-2 15-2v-180l-11 27-36 92-12 30-13 33-6 16-2 2h-6l-5-10-15-38-16-41-22-56-17-43-2-5v174h9l15 2 1 1v9h-65v-9l1-1 23-3v-165l-1-21-19-3-3-1v-8z" fill="#213564"/>
<path transform="translate(1749,394)" d="m0 0h10l4 9 16 43 18 48 13 35 11 30 11 29 4 10v3l16 1 6 2v9h-76v-10l19-3 2-1-3-10-4-10-4-13-3-8-7-20v-3h-71l-1 5-3 10-4 10-6 18-3 8-6 15 13 1 9 1v10h-122v-10l10-2 6-1-4-6-13-15-9-11-12-14-9-11-5-6 2-4 12-11 15-15 8-7 17-17-16-3-1-1v-9h56v10l-20 4-11 9-11 11-8 7-16 15-1 3 8 10 12 14 9 11 12 14 9 11 7 8 18 5 9-1 9-3 8-18 22-59 30-80 11-29z" fill="#BD4F7F"/>
<path transform="translate(256,562)" d="m0 0h265l-1 35-1 17-7 8-5 3-43 1h-121l-73-1-8-5-5-6-1-3z" fill="#EDD3E0"/>
<path transform="translate(1271,394)" d="m0 0h9l8 20 35 94 16 43 15 40 3 10 13 1 8 1 1 1v9h-75l-1-1v-8l1-1 20-3-2-9-13-36-7-19h-69l-11 30-11 31-1 4 20 2 1 1v9h-57l-1-5 1-5 16-3 3-3 9-21 19-51 18-48 17-45 13-35z" fill="#213564"/>
<path transform="translate(272,625)" d="m0 0h195l3 1 4 11 2 13 1 5v8l-3 9-5 4-7 2h-128l-23-1-8-4-4-4-2-5-2-16v-20l1-2h-24z" fill="#FEEFF6"/>
<path transform="translate(954,470)" d="m0 0h71l1 1v7l-2 3-21 3 10 25 17 40 7 23 2 7 10-28 10-26 15-40v-1l-18-3-2-1v-10h58v10l-8 2-13 2-15 36-19 46-22 54-14 34-7 14-8 9-10 4h-15l-10-4-5-6 1-8 4-7 5-6 3-2 4 1 9 8 10 2 5-4 18-42-1-6-16-38-16-40-15-37-2-7-21-4-1-1v-9z" fill="#213564"/>
<path transform="translate(1866,401)" d="m0 0h74v9l-14 3-8 1-1 187 22 2v7l-1 3h-73l-1-1v-8l6-2 17-3 1-186-12-1-10-2z" fill="#BD4F7F"/>
<path transform="translate(1431,465)" d="m0 0 17 1 19 5 8 4 1 1v33h-13l-6-28-11-4-6-1h-14l-10 4-4 6v13l5 10 7 7 15 9 20 11 10 7 7 6 5 7 4 12v13l-4 12-6 8-8 7-12 6-11 3-8 1h-12l-19-3-15-5-4-2v-34h12l2 5 4 19 1 2 13 4 5 1h18l11-4 3-1 2-4 3-7v-11l-3-7-7-8-10-7-26-14-12-9-8-9-4-9-1-4v-16l3-9 4-6 7-7 11-5 8-2z" fill="#213564"/>
<path transform="translate(1544,396)" d="m0 0h4l1 2-1 201 14 2 8 2 1 6-1 4h-69v-10l19-3 2-1 1-15v-169l-20-3-2-3v-6l4-2z" fill="#213564"/>
<path transform="translate(1589,470)" d="m0 0h56v10l-20 4-11 9-11 11-8 7-16 15-1 3 8 10 12 14 9 11 12 14 9 11 7 8 18 5v11h-65v-10l10-2 6-1-4-6-13-15-9-11-12-14-9-11-5-6 2-4 12-11 15-15 8-7 17-17-16-3-1-1z" fill="#213564"/>
<path transform="translate(1746,434)" d="m0 0 2 1 8 28 8 21 4 14 4 10 3 10v3h-59l6-17 10-28 3-8 5-14 5-15z" fill="#FBF9FA"/>
<path transform="translate(1267,435)" d="m0 0h2l7 24 20 57 1 5h-59l1-5 19-53 8-24z" fill="#FBF9FA"/>
<path transform="translate(893,418)" d="m0 0h1v177h-1l-1-170-1-3z" fill="#ECD1DE"/>
</svg>
