<?xml version="1.0" encoding="UTF-8"?>
<svg version="1.1" viewBox="0 0 2048 483" width="1280" height="1280" xmlns="http://www.w3.org/2000/svg">
<path transform="translate(353)" d="m0 0 4 1 5 4 1 7-11 16-13 17-8 11-10 14 9-5 13-8 4 1 1 5-12 17-13 18-14 19-26 36-28 38-10 14 1 3 18 10 24 14 25 14 26 15 8 6 1 2v6l-3 4v2l9 6 2 4-8 6-29 17-28 17-32 19-28 17-32 19-65 39-32 19-20 12h-5l-1-5 6-9 3-4-25 15-26 16-20 12-4 1-6-3-3-7 7-11 16-21 28-38 10-13 14-19 9-12 14-19 16-21 13-18 9-12-4-3-25-15-26-15-20-12-29-17-14-9-2-3v-7l5-5 28-17 21-13 51-31 21-13 51-31 21-13 51-31 21-13 51-31zm-25 32-23 14-26 16-28 17-26 16-74 45-26 16-46 28-42 26 3 3 27 16 7-6 20-12 24-15 28-17 60-37 23-14 21-13 23-14 11-7 8-9 13-18 14-19 11-15zm-194 236m6 3m2 1m1 1m2 1 3 3 2-1zm6 3m1 1 2 3v8l-10 14-16 21-13 18-10 13-14 19-16 21-10 14-13 17-14 19-3 5 5-2 17-10 52-32 6-7 14-19 13-17 11-15 9-12 14-19 11-15v-5l-17-10-16-9z" fill="#050505"/>
<path transform="translate(281,95)" d="m0 0h2l-2 4-10 14-13 18-10 13-14 19-13 18-10 14-1 6 4 5 21 12 24 14 26 15 23 13 17 10v4l-46 28-21 13-46 28-21 13-56 34-13 8-8 5-2-1 8-11 9-12 14-19 18-24 14-19 11-15v-5l-24-13-10-6h-2l-3-3-9-4-2-1v-2l-5-1-12-7-15-9-22-13-13-8-1-2 5-5 24-15 26-16 23-14 60-37 23-14 21-13 23-14z" fill="#FAB00B"/>
<path transform="translate(585,154)" d="m0 0h34l10 15 11 16 16 23 17 25 11 16 10 14 1 1 1-110h37l1 1v175l-1 1h-32l-11-15-15-22-16-23-13-19-22-32h-1v111h-37l-1-1z" fill="#050505"/>
<path transform="translate(1415,154)" d="m0 0h76l17 3 15 6 11 7 11 10 7 10 7 14 4 14 2 18v12l-2 18-5 17-7 14-11 13-12 9-15 7-16 4-10 1h-72zm38 32-1 5v108h33l14-3 11-6 8-8 6-12 3-15v-26l-3-14-6-12-6-7-10-6-16-4z" fill="#010101"/>
<path transform="translate(765,154)" d="m0 0h75l17 3 13 5 12 7 12 11 9 12 5 11 4 13 2 13v27l-3 16-5 15-8 13-9 10-10 8-14 7-14 4-14 2h-72l-1-172zm37 32v113h33l16-4 11-7 6-7 5-10 3-12 1-9v-17l-3-16-5-12-9-10-14-7-10-2z" fill="#010101"/>
<path transform="translate(942,154)" d="m0 0h119l1 1v29l-2 1h-80l-1 42h76v31h-75l-1 42h83v31h-120z" fill="#030303"/>
<path transform="translate(1266,154)" d="m0 0h119v30l-1 1h-81v42h76v30l-1 1h-75v42h82l1 1v29l-1 1h-119z" fill="#030303"/>
<path transform="translate(1725,196)" d="m0 0h8l14 3 11 6 10 9 7 10 6 16 2 13v25l-4 18-5 11-7 10-9 8-12 6-8 2h-18l-10-3-10-7-8-11v-2h-2v70l-1 1h-35l-1-2v-180l1-1h36l1 22 8-12 9-7 10-4zm-15 30-8 4-7 8-4 10-2 12v9l3 16 5 9 7 7 9 3h9l9-3 7-7 5-10 2-8 1-11-2-16-4-10-6-8-10-5z" fill="#060606"/>
<path transform="translate(1084,154)" d="m0 0h43l12 20 17 29 6 10h2l10-17 18-30 7-12h43l-8 14-16 26-12 20-13 21-4 7 2 4 12 20 40 64v1h-43l-6-9-16-27-14-23h-2l-19 32-16 26-1 1h-43l5-9 9-14 24-38 16-26-1-5-15-24-17-28-13-21z" fill="#020202"/>
<path transform="translate(1957,196)" d="m0 0 18 1 12 3 10 5 9 7 8 8 7 12 4 12 2 13v16l-3 17-6 14-9 12-10 8-12 6-12 3-9 1h-10l-14-2-13-5-9-6-8-7-7-10-5-11-3-11-1-6v-22l3-14 6-14 7-9 9-9 10-6 12-4zm4 28-10 2-8 6-6 10-3 11-1 8v9l3 15 5 10 7 7 8 3h12l8-4 5-5 5-8 3-12v-22l-3-12-6-10-8-6z" fill="#030303"/>
<path transform="translate(517,154)" d="m0 0h37v177h-37z"/>
<path transform="translate(1872,196)" d="m0 0h9l7 1v33l-10-1h-10l-9 3-8 6-4 7-1 4-1 81-1 1h-36l-1-38v-54l1-41h35v23h2l3-9 9-10 10-5z" fill="#060606"/>
<path transform="translate(343,279)" d="m0 0 9 6 4 4-2 4-13 8-32 19-28 17-32 19-28 17-32 19-55 33-32 19-20 12h-5l-1-5 6-9 5-6 19-12 41-25 23-14 26-16 28-17 21-13 23-14 26-16 28-17z" fill="#FAB00B"/>
<path transform="translate(343,57)" d="m0 0 4 1 1 5-12 17-13 18-14 19-26 36-28 38-11 16-16-8-1-4 10-13 42-57 11-15 9-12 14-19 7-8 15-9z" fill="#FAB00B"/>
<path transform="translate(1598,292)" d="m0 0h9l8 4 6 7 2 5v10l-6 10-6 4-3 1h-12l-6-3-7-8-2-7 1-9 4-7 8-6z" fill="#050505"/>
</svg>
