<svg width="114" height="36" viewBox="0 0 114 36" fill="none" xmlns="http://www.w3.org/2000/svg">
    <path
        d="M42.2844 26V10.726H36.5367V8.25131H50.9592V10.726H45.2115V26H42.2844ZM56.0689 26.3991C55.3771 26.3991 54.7118 26.3282 54.0732 26.1863C53.4345 26.0621 52.8491 25.8403 52.3169 25.521C51.8025 25.2017 51.3856 24.7671 51.0663 24.2171C50.7647 23.6495 50.6139 22.9488 50.6139 22.115C50.6139 21.1215 50.809 20.3055 51.1993 19.6669C51.5896 19.0283 52.1484 18.5493 52.8757 18.23C53.6031 17.9106 54.4723 17.751 55.4835 17.751C56.1576 17.751 56.7608 17.8042 57.293 17.9106C57.8429 18.0171 58.3307 18.1679 58.7565 18.363C59.2 18.5404 59.5725 18.7444 59.8741 18.975L60.1668 20.8111C59.7765 20.545 59.2532 20.3233 58.5968 20.1459C57.9405 19.9507 57.2309 19.8532 56.4681 19.8532C55.4569 19.8532 54.6852 20.0306 54.153 20.3853C53.6386 20.7401 53.3813 21.2723 53.3813 21.9819C53.3813 22.5141 53.5321 22.9488 53.8337 23.2858C54.1353 23.6051 54.5078 23.8446 54.9513 24.0043C55.4125 24.1462 55.8915 24.2171 56.3882 24.2171C57.4349 24.2171 58.2066 24.1462 58.7033 24.0043C59.2 23.8624 59.4483 23.5342 59.4483 23.0197V17.4317C59.4483 16.4915 59.1645 15.8085 58.5968 15.3827C58.0292 14.9392 57.222 14.7175 56.1753 14.7175C55.4303 14.7175 54.6586 14.8417 53.8603 15.09C53.062 15.3206 52.4056 15.6488 51.8912 16.0746V13.4668C52.3879 13.1298 53.1064 12.8637 54.0466 12.6685C55.0045 12.4556 55.9891 12.3492 57.0002 12.3492C57.497 12.3492 57.9937 12.4024 58.4904 12.5089C59.0048 12.5976 59.4838 12.7484 59.9273 12.9612C60.3708 13.1564 60.7611 13.4313 61.0981 13.7861C61.4529 14.1232 61.7279 14.5401 61.923 15.0368C62.1182 15.5335 62.2158 16.1189 62.2158 16.793V23.1794C62.2158 24.0486 61.9408 24.7227 61.3909 25.2017C60.8587 25.6629 60.1313 25.9734 59.2089 26.133C58.2864 26.3104 57.2397 26.3991 56.0689 26.3991ZM72.2356 26.3725C71.8985 26.3725 71.4816 26.3282 70.9849 26.2395C70.4882 26.1685 69.9915 26.0532 69.4948 25.8936C68.998 25.7162 68.5634 25.4855 68.1909 25.2017L68.9093 24.297V31.3486H66.1419V15.2231C66.1419 14.6731 66.3105 14.2119 66.6475 13.8394C67.0023 13.4668 67.4636 13.1741 68.0312 12.9612C68.5989 12.7306 69.2198 12.571 69.8939 12.4823C70.5858 12.3758 71.2687 12.3226 71.9429 12.3226C73.1314 12.3226 74.2136 12.5443 75.1892 12.9878C76.1649 13.4313 76.9455 14.1853 77.5309 15.2497C78.1163 16.2963 78.409 17.7332 78.409 19.5604C78.409 20.9442 78.1695 22.1505 77.6906 23.1794C77.2116 24.1905 76.5109 24.98 75.5884 25.5476C74.6659 26.0976 73.5483 26.3725 72.2356 26.3725ZM71.73 24.0309C72.5815 24.0309 73.2911 23.8535 73.8588 23.4987C74.4264 23.1439 74.8522 22.6294 75.136 21.9553C75.4199 21.2812 75.5618 20.4652 75.5618 19.5072C75.5618 18.6202 75.4553 17.8131 75.2425 17.0857C75.0473 16.3584 74.6837 15.7907 74.1515 15.3827C73.6193 14.957 72.8565 14.7441 71.863 14.7441C70.976 14.7441 70.2576 14.8417 69.7076 15.0368C69.1754 15.2142 68.9093 15.4803 68.9093 15.8351V23.2592C69.3706 23.5076 69.8407 23.7027 70.3197 23.8446C70.7986 23.9688 71.2687 24.0309 71.73 24.0309ZM84.397 26H81.6296V7.58607H84.397V26ZM88.4139 26V12.7217H91.2079L91.2345 26H88.4139ZM88.334 10.5131V7.98521H91.3143V10.5131H88.334ZM100.967 26.3991C98.8032 26.3991 97.1888 25.7871 96.1244 24.5631C95.0778 23.339 94.5545 21.5917 94.5545 19.321C94.5545 16.9083 95.0955 15.1432 96.1777 14.0256C97.2775 12.8903 98.8564 12.3226 100.914 12.3226C102.387 12.3226 103.602 12.5976 104.56 13.1475C105.518 13.6797 106.227 14.4691 106.689 15.5158C107.15 16.5624 107.38 17.8308 107.38 19.321C107.38 21.5739 106.822 23.3213 105.704 24.5631C104.604 25.7871 103.025 26.3991 100.967 26.3991ZM100.941 24.0309C101.846 24.0309 102.564 23.8357 103.096 23.4455C103.628 23.0375 104.01 22.4786 104.24 21.7691C104.489 21.0595 104.613 20.2434 104.613 19.321C104.613 18.292 104.489 17.4317 104.24 16.7398C103.992 16.048 103.602 15.5335 103.07 15.1964C102.537 14.8417 101.828 14.6643 100.941 14.6643C100.054 14.6643 99.3442 14.8505 98.812 15.2231C98.2798 15.5956 97.8984 16.1278 97.6678 16.8196C97.4372 17.5115 97.3219 18.3453 97.3219 19.321C97.3219 20.7934 97.5969 21.9465 98.1468 22.7802C98.6967 23.614 99.6281 24.0309 100.941 24.0309Z"
        fill="#0B66C2" />
    <path
        d="M26.356 17.3603C26.356 23.8296 21.1116 29.074 14.6422 29.074C8.17284 29.074 2.92844 23.8296 2.92844 17.3603C2.92844 10.8909 8.17284 5.64648 14.6422 5.64648C21.1116 5.64648 26.356 10.8909 26.356 17.3603Z"
        fill="#38A1D6" />
    <path
        d="M14.6422 32.0032C6.55563 32.0032 0 25.4475 0 17.361C0 9.27438 6.55563 2.71875 14.6422 2.71875C22.7288 2.71875 29.2844 9.27438 29.2844 17.361C29.2754 25.4437 22.725 31.9941 14.6422 32.0032ZM14.6422 3.6949C7.0947 3.6949 0.976147 9.81345 0.976147 17.361C0.976147 24.9085 7.0947 31.027 14.6422 31.027C22.1897 31.027 28.3083 24.9085 28.3083 17.361C28.2997 9.81703 22.1861 3.70348 14.6422 3.6949Z"
        fill="#0B66C2" />
    <path
        d="M21.4751 17.3604C21.4751 21.1341 18.4159 24.1934 14.6421 24.1934C10.8684 24.1934 7.80908 21.1341 7.80908 17.3604C7.80908 13.5866 10.8684 10.5273 14.6421 10.5273C18.4159 10.5273 21.4751 13.5866 21.4751 17.3604Z"
        fill="#0B66C2" />
</svg>