<svg width="1151" height="201" viewBox="0 0 1151 201" fill="none" xmlns="http://www.w3.org/2000/svg">
<path d="M275.625 33.3887H296.152V73.366H296.586C299.188 69.0293 302.513 65.8972 306.56 63.9698C310.608 61.946 314.559 60.9341 318.414 60.9341C323.907 60.9341 328.389 61.705 331.858 63.247C335.424 64.6926 338.219 66.7646 340.242 69.463C342.266 72.065 343.664 75.2935 344.435 79.1483C345.302 82.9068 345.736 87.099 345.736 91.7249V137.694H325.208V95.4834C325.208 89.3156 324.245 84.7379 322.317 81.7504C320.39 78.6665 316.969 77.1245 312.054 77.1245C306.464 77.1245 302.416 78.811 299.911 82.184C297.405 85.4607 296.152 90.9057 296.152 98.5191V137.694H275.625V33.3887Z" fill="#364152"/>
<path d="M359.002 62.9579H379.529V137.694H359.002V62.9579Z" fill="#364152"/>
<path d="M427.64 120.058C430.531 120.058 433.085 119.48 435.301 118.324C437.518 117.167 439.349 115.625 440.795 113.698C442.24 111.77 443.3 109.602 443.975 107.193C444.746 104.687 445.131 102.085 445.131 99.3864C445.131 96.3025 444.842 93.4114 444.264 90.713C443.686 87.9182 442.722 85.4607 441.373 83.3405C440.024 81.2203 438.241 79.5338 436.024 78.281C433.808 77.0282 431.013 76.4017 427.64 76.4017C424.749 76.4017 422.243 76.98 420.123 78.1364C418.099 79.2929 416.364 80.883 414.919 82.9069C413.57 84.8343 412.558 87.099 411.883 89.7011C411.305 92.2067 411.016 94.857 411.016 97.6518C411.016 100.35 411.257 103.049 411.739 105.747C412.317 108.349 413.232 110.71 414.485 112.83C415.834 114.95 417.569 116.685 419.689 118.034C421.809 119.384 424.46 120.058 427.64 120.058ZM464.647 132.924C464.647 135.911 464.213 139.333 463.346 143.187C462.575 147.042 460.84 150.608 458.142 153.885C455.443 157.258 451.54 160.101 446.432 162.414C441.325 164.727 434.482 165.883 425.905 165.883C422.243 165.883 418.485 165.401 414.63 164.437C410.871 163.57 407.402 162.173 404.222 160.245C401.138 158.318 398.536 155.812 396.415 152.728C394.392 149.741 393.235 146.127 392.946 141.886H413.329C414.292 145.741 416.172 148.392 418.966 149.837C421.761 151.379 424.99 152.15 428.652 152.15C434.434 152.15 438.626 150.415 441.228 146.946C443.927 143.477 445.228 139.092 445.131 133.791V123.961H444.842C442.626 127.913 439.445 130.852 435.301 132.779C431.254 134.61 426.965 135.526 422.436 135.526C416.846 135.526 412.028 134.562 407.98 132.635C403.932 130.611 400.608 127.913 398.006 124.54C395.404 121.07 393.476 117.071 392.223 112.541C391.067 107.915 390.489 103.049 390.489 97.9409C390.489 93.1223 391.163 88.4964 392.512 84.0633C393.958 79.5338 396.03 75.5826 398.728 72.2096C401.427 68.7402 404.752 65.9936 408.703 63.9698C412.75 61.946 417.376 60.9341 422.58 60.9341C427.495 60.9341 431.784 61.8496 435.446 63.6806C439.205 65.5117 442.337 68.5956 444.842 72.9324H445.131V62.9579H464.647V132.924Z" fill="#364152"/>
<path d="M478.283 33.48H498.81V73.366H499.243C501.846 69.0293 505.17 65.8972 509.218 63.9698C513.266 61.946 517.217 60.9341 521.072 60.9341C526.565 60.9341 531.046 61.705 534.516 63.247C538.081 64.6926 540.876 66.7646 542.9 69.463C544.924 72.065 546.321 75.2935 547.092 79.1483C547.959 82.9068 548.393 87.099 548.393 91.7249V137.694H527.866V95.4834C527.866 89.3156 526.902 84.7379 524.975 81.7504C523.047 78.6665 519.626 77.1245 514.711 77.1245C509.122 77.1245 505.074 78.811 502.568 82.184C500.063 85.4607 498.81 90.9057 498.81 98.5191V137.694H478.283V33.48Z" fill="#364152"/>
<path d="M598.811 124.25C602.184 124.25 604.979 123.576 607.195 122.227C609.508 120.877 611.339 119.143 612.689 117.022C614.134 114.806 615.146 112.252 615.724 109.361C616.303 106.47 616.592 103.53 616.592 100.543C616.592 97.5554 616.254 94.616 615.58 91.7249C615.002 88.8337 613.99 86.2799 612.544 84.0633C611.098 81.7504 609.219 79.9193 606.906 78.5701C604.69 77.1245 601.943 76.4017 598.667 76.4017C595.293 76.4017 592.451 77.1245 590.138 78.5701C587.921 79.9193 586.09 81.7022 584.644 83.9188C583.295 86.1353 582.331 88.6892 581.753 91.5803C581.175 94.4715 580.886 97.459 580.886 100.543C580.886 103.53 581.175 106.47 581.753 109.361C582.428 112.252 583.44 114.806 584.789 117.022C586.235 119.143 588.114 120.877 590.427 122.227C592.74 123.576 595.534 124.25 598.811 124.25ZM561.081 62.9579H580.597V72.4987H580.886C583.392 68.4511 586.572 65.5117 590.427 63.6806C594.282 61.8496 598.522 60.9341 603.148 60.9341C609.026 60.9341 614.086 62.0423 618.326 64.2589C622.567 66.4754 626.084 69.4148 628.879 73.0769C631.674 76.739 633.746 81.0276 635.095 85.9426C636.444 90.7611 637.119 95.8207 637.119 101.121C637.119 106.132 636.444 110.951 635.095 115.577C633.746 120.203 631.674 124.299 628.879 127.864C626.181 131.43 622.759 134.273 618.616 136.393C614.568 138.513 609.797 139.574 604.304 139.574C599.678 139.574 595.39 138.658 591.439 136.827C587.584 134.899 584.404 132.105 581.898 128.443H581.609V163.859H561.081V62.9579Z" fill="#364152"/>
<path d="M696.869 92.3031C695.905 87.099 694.17 83.1478 691.665 80.4494C689.255 77.7509 685.545 76.4017 680.534 76.4017C677.257 76.4017 674.51 76.98 672.294 78.1364C670.174 79.1965 668.439 80.5457 667.09 82.184C665.837 83.8224 664.921 85.5571 664.343 87.3881C663.861 89.2192 663.572 90.8575 663.476 92.3031H696.869ZM663.476 105.313C663.765 111.963 665.452 116.782 668.535 119.769C671.619 122.757 676.052 124.25 681.835 124.25C685.979 124.25 689.544 123.238 692.532 121.215C695.52 119.094 697.351 116.878 698.025 114.565H716.095C713.204 123.528 708.771 129.936 702.796 133.791C696.821 137.646 689.593 139.574 681.112 139.574C675.233 139.574 669.933 138.658 665.211 136.827C660.488 134.899 656.489 132.201 653.212 128.732C649.936 125.262 647.382 121.118 645.551 116.3C643.816 111.481 642.949 106.181 642.949 100.398C642.949 94.8088 643.864 89.6047 645.695 84.7861C647.526 79.9675 650.128 75.8235 653.501 72.3541C656.874 68.7884 660.874 65.9936 665.5 63.9698C670.222 61.946 675.426 60.9341 681.112 60.9341C687.472 60.9341 693.014 62.1869 697.736 64.6926C702.458 67.1019 706.313 70.3785 709.301 74.5225C712.385 78.6665 714.601 83.3887 715.95 88.6892C717.3 93.9896 717.781 99.531 717.396 105.313H663.476Z" fill="#364152"/>
<path d="M726.679 62.9579H746.195V76.8354H746.484C747.447 74.5225 748.748 72.4023 750.387 70.4749C752.025 68.4511 753.904 66.7646 756.024 65.4154C758.145 63.9698 760.409 62.8615 762.819 62.0905C765.228 61.3195 767.734 60.9341 770.336 60.9341C771.685 60.9341 773.179 61.175 774.817 61.6568V80.7385C773.853 80.5457 772.697 80.4012 771.348 80.3048C769.998 80.112 768.697 80.0157 767.445 80.0157C763.686 80.0157 760.506 80.6421 757.904 81.8949C755.302 83.1478 753.182 84.8825 751.543 87.099C750.001 89.2192 748.893 91.7249 748.218 94.616C747.544 97.5072 747.206 100.639 747.206 104.012V137.694H726.679V62.9579Z" fill="#364152"/>
<path d="M794.551 76.6909H782.264V62.9579H794.551V57.1756C794.551 50.5259 796.623 45.0809 800.767 40.8405C804.911 36.6002 811.175 34.48 819.56 34.48C821.391 34.48 823.222 34.5764 825.053 34.7691C826.884 34.8655 828.667 34.9618 830.401 35.0582V50.3813C827.992 50.0922 825.487 49.9477 822.884 49.9477C820.09 49.9477 818.066 50.6223 816.813 51.9715C815.657 53.2243 815.078 55.3927 815.078 58.4766V62.9579H829.245V76.6909H815.078V137.694H794.551V76.6909Z" fill="#364152"/>
<path d="M853.532 100.398C853.532 103.386 853.821 106.325 854.399 109.216C854.977 112.011 855.941 114.565 857.29 116.878C858.736 119.094 860.615 120.877 862.928 122.227C865.241 123.576 868.132 124.25 871.602 124.25C875.071 124.25 877.962 123.576 880.275 122.227C882.684 120.877 884.564 119.094 885.913 116.878C887.358 114.565 888.37 112.011 888.949 109.216C889.527 106.325 889.816 103.386 889.816 100.398C889.816 97.4108 889.527 94.4715 888.949 91.5803C888.37 88.6892 887.358 86.1353 885.913 83.9188C884.564 81.7022 882.684 79.9193 880.275 78.5701C877.962 77.1245 875.071 76.4017 871.602 76.4017C868.132 76.4017 865.241 77.1245 862.928 78.5701C860.615 79.9193 858.736 81.7022 857.29 83.9188C855.941 86.1353 854.977 88.6892 854.399 91.5803C853.821 94.4715 853.532 97.4108 853.532 100.398ZM833.005 100.398C833.005 94.4233 833.92 89.0265 835.751 84.2079C837.582 79.2929 840.184 75.1489 843.557 71.7759C846.93 68.3065 850.978 65.6563 855.7 63.8252C860.422 61.8978 865.723 60.9341 871.602 60.9341C877.48 60.9341 882.781 61.8978 887.503 63.8252C892.322 65.6563 896.417 68.3065 899.79 71.7759C903.163 75.1489 905.765 79.2929 907.596 84.2079C909.428 89.0265 910.343 94.4233 910.343 100.398C910.343 106.373 909.428 111.77 907.596 116.589C905.765 121.407 903.163 125.551 899.79 129.021C896.417 132.394 892.322 134.996 887.503 136.827C882.781 138.658 877.48 139.574 871.602 139.574C865.723 139.574 860.422 138.658 855.7 136.827C850.978 134.996 846.93 132.394 843.557 129.021C840.184 125.551 837.582 121.407 835.751 116.589C833.92 111.77 833.005 106.373 833.005 100.398Z" fill="#364152"/>
<path d="M920.799 62.9579H940.314V76.8354H940.603C941.567 74.5225 942.868 72.4023 944.506 70.4749C946.144 68.4511 948.024 66.7646 950.144 65.4154C952.264 63.9698 954.529 62.8615 956.938 62.0905C959.347 61.3195 961.853 60.9341 964.455 60.9341C965.804 60.9341 967.298 61.175 968.936 61.6568V80.7385C967.973 80.5457 966.816 80.4012 965.467 80.3048C964.118 80.112 962.817 80.0157 961.564 80.0157C957.806 80.0157 954.625 80.6421 952.023 81.8949C949.421 83.1478 947.301 84.8825 945.663 87.099C944.121 89.2192 943.012 91.7249 942.338 94.616C941.663 97.5072 941.326 100.639 941.326 104.012V137.694H920.799V62.9579Z" fill="#364152"/>
<path d="M974.671 62.9579H994.042V73.0769H994.331C997.03 69.222 1000.26 66.2345 1004.02 64.1143C1007.87 61.9941 1012.26 60.9341 1017.17 60.9341C1021.89 60.9341 1026.18 61.8496 1030.04 63.6806C1033.99 65.5117 1036.98 68.7402 1039 73.366C1041.22 70.0894 1044.2 67.1982 1047.96 64.6926C1051.82 62.1869 1056.35 60.9341 1061.55 60.9341C1065.5 60.9341 1069.16 61.4159 1072.54 62.3796C1075.91 63.3434 1078.8 64.8853 1081.21 67.0055C1083.62 69.1257 1085.5 71.9205 1086.85 75.3898C1088.2 78.7629 1088.87 82.8587 1088.87 87.6773V137.694H1068.34V95.3388C1068.34 92.8332 1068.25 90.472 1068.06 88.2555C1067.86 86.0389 1067.33 84.1115 1066.47 82.4732C1065.6 80.8349 1064.3 79.5338 1062.56 78.5701C1060.92 77.6064 1058.66 77.1245 1055.77 77.1245C1052.88 77.1245 1050.52 77.7028 1048.68 78.8592C1046.95 79.9193 1045.55 81.3649 1044.49 83.196C1043.53 84.9307 1042.85 86.9545 1042.47 89.2674C1042.18 91.4839 1042.04 93.7487 1042.04 96.0616V137.694H1021.51V95.7725C1021.51 93.5559 1021.46 91.3876 1021.36 89.2674C1021.27 87.0508 1020.83 85.027 1020.06 83.196C1019.39 81.3649 1018.18 79.9193 1016.45 78.8592C1014.81 77.7028 1012.35 77.1245 1009.08 77.1245C1008.11 77.1245 1006.81 77.3655 1005.17 77.8473C1003.63 78.2328 1002.09 79.052 1000.55 80.3048C999.102 81.4613 997.849 83.196 996.789 85.5089C995.729 87.7254 995.199 90.6648 995.199 94.3269V137.694H974.671V62.9579Z" fill="#364152"/>
<path d="M1102.21 62.9579H1121.72V76.8354H1122.01C1122.98 74.5225 1124.28 72.4023 1125.91 70.4749C1127.55 68.4511 1129.43 66.7646 1131.55 65.4154C1133.67 63.9698 1135.94 62.8615 1138.35 62.0905C1140.76 61.3195 1143.26 60.9341 1145.86 60.9341C1147.21 60.9341 1148.71 61.175 1150.35 61.6568V80.7385C1149.38 80.5457 1148.22 80.4012 1146.88 80.3048C1145.53 80.112 1144.23 80.0157 1142.97 80.0157C1139.21 80.0157 1136.03 80.6421 1133.43 81.8949C1130.83 83.1478 1128.71 84.8825 1127.07 87.099C1125.53 89.2192 1124.42 91.7249 1123.75 94.616C1123.07 97.5072 1122.73 100.639 1122.73 104.012V137.694H1102.21V62.9579Z" fill="#364152"/>
<g clip-path="url(#clip0_146_6368)">
<path fill-rule="evenodd" clip-rule="evenodd" d="M167.289 33.4551H167.29L167.29 108.426H133.957V66.7884L92.3184 66.7884V33.4551L133.957 33.4551H167.289Z" fill="#4CA30D"/>
<path fill-rule="evenodd" clip-rule="evenodd" d="M33.9857 0.12207H0.652344V166.789V200.122V200.122H200.652V166.789L33.9857 166.789V0.12207Z" fill="#364152"/>
</g>
<path fill-rule="evenodd" clip-rule="evenodd" d="M379.443 33.4551H379.445V53.912H370.35V42.5506L358.986 42.5506L358.986 33.4551L370.35 33.4551H379.443Z" fill="#4CA30D"/>
<defs>
<clipPath id="clip0_146_6368">
<rect width="200" height="200" fill="white" transform="translate(0.652344 0.12207)"/>
</clipPath>
</defs>
</svg>
